<svg xmlns="http://www.w3.org/2000/svg" version="1.1" xmlns:xlink="http://www.w3.org/1999/xlink" xmlns:svgjs="http://svgjs.dev/svgjs" viewBox="0 0 800 800" opacity="0.65"><defs><linearGradient gradientTransform="rotate(270)" x1="50%" y1="0%" x2="50%" y2="100%" id="sssquiggly-grad"><stop stop-color="hsl(185, 53%, 55%)" stop-opacity="1" offset="0%"></stop><stop stop-color="hsl(0, 73%, 55%)" stop-opacity="1" offset="100%"></stop></linearGradient></defs><g stroke-width="1.5" stroke="url(#sssquiggly-grad)" fill="none" stroke-linecap="round" transform="matrix(1,0,0,1,-5,-314.5802803039551)"><path d="M10,10C19.821428571428573,14.583333333333332,35.41666666666667,41.375,57.142857142857146,32C78.86904761904762,22.625,90.47619047619048,-34.583333333333336,114.28571428571429,-35C138.0952380952381,-35.416666666666664,147.61904761904765,25.833333333333332,171.42857142857144,30C195.23809523809524,34.166666666666664,204.76190476190476,-12.916666666666666,228.57142857142858,-15C252.3809523809524,-17.083333333333332,261.9047619047619,20,285.7142857142857,20C309.5238095238095,20,319.0476190476191,-19.583333333333332,342.8571428571429,-15C366.6666666666667,-10.416666666666668,376.1904761904762,38.458333333333336,400,42C423.8095238095238,45.541666666666664,433.33333333333337,-1.125,457.14285714285717,2C480.95238095238096,5.125,490.47619047619054,60.541666666666664,514.2857142857143,57C538.0952380952382,53.458333333333336,547.6190476190477,-14.791666666666666,571.4285714285714,-15C595.2380952380952,-15.208333333333334,604.7619047619047,51.833333333333336,628.5714285714286,56C652.3809523809524,60.166666666666664,661.9047619047619,6.666666666666666,685.7142857142858,5C709.5238095238096,3.3333333333333335,719.047619047619,49.041666666666664,742.8571428571429,48C766.6666666666667,46.958333333333336,788.0952380952381,10,800,0"></path><path d="M10,10C19.821428571428573,14.583333333333332,35.41666666666667,41.375,57.142857142857146,32C78.86904761904762,22.625,90.47619047619048,-34.583333333333336,114.28571428571429,-35C138.0952380952381,-35.416666666666664,147.61904761904765,25.833333333333332,171.42857142857144,30C195.23809523809524,34.166666666666664,204.76190476190476,-12.916666666666666,228.57142857142858,-15C252.3809523809524,-17.083333333333332,261.9047619047619,20,285.7142857142857,20C309.5238095238095,20,319.0476190476191,-19.583333333333332,342.8571428571429,-15C366.6666666666667,-10.416666666666668,376.1904761904762,38.458333333333336,400,42C423.8095238095238,45.541666666666664,433.33333333333337,-1.125,457.14285714285717,2C480.95238095238096,5.125,490.47619047619054,60.541666666666664,514.2857142857143,57C538.0952380952382,53.458333333333336,547.6190476190477,-14.791666666666666,571.4285714285714,-15C595.2380952380952,-15.208333333333334,604.7619047619047,51.833333333333336,628.5714285714286,56C652.3809523809524,60.166666666666664,661.9047619047619,6.666666666666666,685.7142857142858,5C709.5238095238096,3.3333333333333335,719.047619047619,49.041666666666664,742.8571428571429,48C766.6666666666667,46.958333333333336,788.0952380952381,10,800,0" transform="matrix(1,0,0,1,0,1407)"></path><path d="M10,10C19.821428571428573,14.583333333333332,35.41666666666667,41.375,57.142857142857146,32C78.86904761904762,22.625,90.47619047619048,-34.583333333333336,114.28571428571429,-35C138.0952380952381,-35.416666666666664,147.61904761904765,25.833333333333332,171.42857142857144,30C195.23809523809524,34.166666666666664,204.76190476190476,-12.916666666666666,228.57142857142858,-15C252.3809523809524,-17.083333333333332,261.9047619047619,20,285.7142857142857,20C309.5238095238095,20,319.0476190476191,-19.583333333333332,342.8571428571429,-15C366.6666666666667,-10.416666666666668,376.1904761904762,38.458333333333336,400,42C423.8095238095238,45.541666666666664,433.33333333333337,-1.125,457.14285714285717,2C480.95238095238096,5.125,490.47619047619054,60.541666666666664,514.2857142857143,57C538.0952380952382,53.458333333333336,547.6190476190477,-14.791666666666666,571.4285714285714,-15C595.2380952380952,-15.208333333333334,604.7619047619047,51.833333333333336,628.5714285714286,56C652.3809523809524,60.166666666666664,661.9047619047619,6.666666666666666,685.7142857142858,5C709.5238095238096,3.3333333333333335,719.047619047619,49.041666666666664,742.8571428571429,48C766.6666666666667,46.958333333333336,788.0952380952381,10,800,0" transform="matrix(1,0,0,1,0,1340)"></path><path d="M10,10C19.821428571428573,14.583333333333332,35.41666666666667,41.375,57.142857142857146,32C78.86904761904762,22.625,90.47619047619048,-34.583333333333336,114.28571428571429,-35C138.0952380952381,-35.416666666666664,147.61904761904765,25.833333333333332,171.42857142857144,30C195.23809523809524,34.166666666666664,204.76190476190476,-12.916666666666666,228.57142857142858,-15C252.3809523809524,-17.083333333333332,261.9047619047619,20,285.7142857142857,20C309.5238095238095,20,319.0476190476191,-19.583333333333332,342.8571428571429,-15C366.6666666666667,-10.416666666666668,376.1904761904762,38.458333333333336,400,42C423.8095238095238,45.541666666666664,433.33333333333337,-1.125,457.14285714285717,2C480.95238095238096,5.125,490.47619047619054,60.541666666666664,514.2857142857143,57C538.0952380952382,53.458333333333336,547.6190476190477,-14.791666666666666,571.4285714285714,-15C595.2380952380952,-15.208333333333334,604.7619047619047,51.833333333333336,628.5714285714286,56C652.3809523809524,60.166666666666664,661.9047619047619,6.666666666666666,685.7142857142858,5C709.5238095238096,3.3333333333333335,719.047619047619,49.041666666666664,742.8571428571429,48C766.6666666666667,46.958333333333336,788.0952380952381,10,800,0" transform="matrix(1,0,0,1,0,1273)"></path><path d="M10,10C19.821428571428573,14.583333333333332,35.41666666666667,41.375,57.142857142857146,32C78.86904761904762,22.625,90.47619047619048,-34.583333333333336,114.28571428571429,-35C138.0952380952381,-35.416666666666664,147.61904761904765,25.833333333333332,171.42857142857144,30C195.23809523809524,34.166666666666664,204.76190476190476,-12.916666666666666,228.57142857142858,-15C252.3809523809524,-17.083333333333332,261.9047619047619,20,285.7142857142857,20C309.5238095238095,20,319.0476190476191,-19.583333333333332,342.8571428571429,-15C366.6666666666667,-10.416666666666668,376.1904761904762,38.458333333333336,400,42C423.8095238095238,45.541666666666664,433.33333333333337,-1.125,457.14285714285717,2C480.95238095238096,5.125,490.47619047619054,60.541666666666664,514.2857142857143,57C538.0952380952382,53.458333333333336,547.6190476190477,-14.791666666666666,571.4285714285714,-15C595.2380952380952,-15.208333333333334,604.7619047619047,51.833333333333336,628.5714285714286,56C652.3809523809524,60.166666666666664,661.9047619047619,6.666666666666666,685.7142857142858,5C709.5238095238096,3.3333333333333335,719.047619047619,49.041666666666664,742.8571428571429,48C766.6666666666667,46.958333333333336,788.0952380952381,10,800,0" transform="matrix(1,0,0,1,0,1206)"></path><path d="M10,10C19.821428571428573,14.583333333333332,35.41666666666667,41.375,57.142857142857146,32C78.86904761904762,22.625,90.47619047619048,-34.583333333333336,114.28571428571429,-35C138.0952380952381,-35.416666666666664,147.61904761904765,25.833333333333332,171.42857142857144,30C195.23809523809524,34.166666666666664,204.76190476190476,-12.916666666666666,228.57142857142858,-15C252.3809523809524,-17.083333333333332,261.9047619047619,20,285.7142857142857,20C309.5238095238095,20,319.0476190476191,-19.583333333333332,342.8571428571429,-15C366.6666666666667,-10.416666666666668,376.1904761904762,38.458333333333336,400,42C423.8095238095238,45.541666666666664,433.33333333333337,-1.125,457.14285714285717,2C480.95238095238096,5.125,490.47619047619054,60.541666666666664,514.2857142857143,57C538.0952380952382,53.458333333333336,547.6190476190477,-14.791666666666666,571.4285714285714,-15C595.2380952380952,-15.208333333333334,604.7619047619047,51.833333333333336,628.5714285714286,56C652.3809523809524,60.166666666666664,661.9047619047619,6.666666666666666,685.7142857142858,5C709.5238095238096,3.3333333333333335,719.047619047619,49.041666666666664,742.8571428571429,48C766.6666666666667,46.958333333333336,788.0952380952381,10,800,0" transform="matrix(1,0,0,1,0,1139)"></path><path d="M10,10C19.821428571428573,14.583333333333332,35.41666666666667,41.375,57.142857142857146,32C78.86904761904762,22.625,90.47619047619048,-34.583333333333336,114.28571428571429,-35C138.0952380952381,-35.416666666666664,147.61904761904765,25.833333333333332,171.42857142857144,30C195.23809523809524,34.166666666666664,204.76190476190476,-12.916666666666666,228.57142857142858,-15C252.3809523809524,-17.083333333333332,261.9047619047619,20,285.7142857142857,20C309.5238095238095,20,319.0476190476191,-19.583333333333332,342.8571428571429,-15C366.6666666666667,-10.416666666666668,376.1904761904762,38.458333333333336,400,42C423.8095238095238,45.541666666666664,433.33333333333337,-1.125,457.14285714285717,2C480.95238095238096,5.125,490.47619047619054,60.541666666666664,514.2857142857143,57C538.0952380952382,53.458333333333336,547.6190476190477,-14.791666666666666,571.4285714285714,-15C595.2380952380952,-15.208333333333334,604.7619047619047,51.833333333333336,628.5714285714286,56C652.3809523809524,60.166666666666664,661.9047619047619,6.666666666666666,685.7142857142858,5C709.5238095238096,3.3333333333333335,719.047619047619,49.041666666666664,742.8571428571429,48C766.6666666666667,46.958333333333336,788.0952380952381,10,800,0" transform="matrix(1,0,0,1,0,1072)"></path><path d="M10,10C19.821428571428573,14.583333333333332,35.41666666666667,41.375,57.142857142857146,32C78.86904761904762,22.625,90.47619047619048,-34.583333333333336,114.28571428571429,-35C138.0952380952381,-35.416666666666664,147.61904761904765,25.833333333333332,171.42857142857144,30C195.23809523809524,34.166666666666664,204.76190476190476,-12.916666666666666,228.57142857142858,-15C252.3809523809524,-17.083333333333332,261.9047619047619,20,285.7142857142857,20C309.5238095238095,20,319.0476190476191,-19.583333333333332,342.8571428571429,-15C366.6666666666667,-10.416666666666668,376.1904761904762,38.458333333333336,400,42C423.8095238095238,45.541666666666664,433.33333333333337,-1.125,457.14285714285717,2C480.95238095238096,5.125,490.47619047619054,60.541666666666664,514.2857142857143,57C538.0952380952382,53.458333333333336,547.6190476190477,-14.791666666666666,571.4285714285714,-15C595.2380952380952,-15.208333333333334,604.7619047619047,51.833333333333336,628.5714285714286,56C652.3809523809524,60.166666666666664,661.9047619047619,6.666666666666666,685.7142857142858,5C709.5238095238096,3.3333333333333335,719.047619047619,49.041666666666664,742.8571428571429,48C766.6666666666667,46.958333333333336,788.0952380952381,10,800,0" transform="matrix(1,0,0,1,0,1005)"></path><path d="M10,10C19.821428571428573,14.583333333333332,35.41666666666667,41.375,57.142857142857146,32C78.86904761904762,22.625,90.47619047619048,-34.583333333333336,114.28571428571429,-35C138.0952380952381,-35.416666666666664,147.61904761904765,25.833333333333332,171.42857142857144,30C195.23809523809524,34.166666666666664,204.76190476190476,-12.916666666666666,228.57142857142858,-15C252.3809523809524,-17.083333333333332,261.9047619047619,20,285.7142857142857,20C309.5238095238095,20,319.0476190476191,-19.583333333333332,342.8571428571429,-15C366.6666666666667,-10.416666666666668,376.1904761904762,38.458333333333336,400,42C423.8095238095238,45.541666666666664,433.33333333333337,-1.125,457.14285714285717,2C480.95238095238096,5.125,490.47619047619054,60.541666666666664,514.2857142857143,57C538.0952380952382,53.458333333333336,547.6190476190477,-14.791666666666666,571.4285714285714,-15C595.2380952380952,-15.208333333333334,604.7619047619047,51.833333333333336,628.5714285714286,56C652.3809523809524,60.166666666666664,661.9047619047619,6.666666666666666,685.7142857142858,5C709.5238095238096,3.3333333333333335,719.047619047619,49.041666666666664,742.8571428571429,48C766.6666666666667,46.958333333333336,788.0952380952381,10,800,0" transform="matrix(1,0,0,1,0,938)"></path><path d="M10,10C19.821428571428573,14.583333333333332,35.41666666666667,41.375,57.142857142857146,32C78.86904761904762,22.625,90.47619047619048,-34.583333333333336,114.28571428571429,-35C138.0952380952381,-35.416666666666664,147.61904761904765,25.833333333333332,171.42857142857144,30C195.23809523809524,34.166666666666664,204.76190476190476,-12.916666666666666,228.57142857142858,-15C252.3809523809524,-17.083333333333332,261.9047619047619,20,285.7142857142857,20C309.5238095238095,20,319.0476190476191,-19.583333333333332,342.8571428571429,-15C366.6666666666667,-10.416666666666668,376.1904761904762,38.458333333333336,400,42C423.8095238095238,45.541666666666664,433.33333333333337,-1.125,457.14285714285717,2C480.95238095238096,5.125,490.47619047619054,60.541666666666664,514.2857142857143,57C538.0952380952382,53.458333333333336,547.6190476190477,-14.791666666666666,571.4285714285714,-15C595.2380952380952,-15.208333333333334,604.7619047619047,51.833333333333336,628.5714285714286,56C652.3809523809524,60.166666666666664,661.9047619047619,6.666666666666666,685.7142857142858,5C709.5238095238096,3.3333333333333335,719.047619047619,49.041666666666664,742.8571428571429,48C766.6666666666667,46.958333333333336,788.0952380952381,10,800,0" transform="matrix(1,0,0,1,0,871)"></path><path d="M10,10C19.821428571428573,14.583333333333332,35.41666666666667,41.375,57.142857142857146,32C78.86904761904762,22.625,90.47619047619048,-34.583333333333336,114.28571428571429,-35C138.0952380952381,-35.416666666666664,147.61904761904765,25.833333333333332,171.42857142857144,30C195.23809523809524,34.166666666666664,204.76190476190476,-12.916666666666666,228.57142857142858,-15C252.3809523809524,-17.083333333333332,261.9047619047619,20,285.7142857142857,20C309.5238095238095,20,319.0476190476191,-19.583333333333332,342.8571428571429,-15C366.6666666666667,-10.416666666666668,376.1904761904762,38.458333333333336,400,42C423.8095238095238,45.541666666666664,433.33333333333337,-1.125,457.14285714285717,2C480.95238095238096,5.125,490.47619047619054,60.541666666666664,514.2857142857143,57C538.0952380952382,53.458333333333336,547.6190476190477,-14.791666666666666,571.4285714285714,-15C595.2380952380952,-15.208333333333334,604.7619047619047,51.833333333333336,628.5714285714286,56C652.3809523809524,60.166666666666664,661.9047619047619,6.666666666666666,685.7142857142858,5C709.5238095238096,3.3333333333333335,719.047619047619,49.041666666666664,742.8571428571429,48C766.6666666666667,46.958333333333336,788.0952380952381,10,800,0" transform="matrix(1,0,0,1,0,804)"></path><path d="M10,10C19.821428571428573,14.583333333333332,35.41666666666667,41.375,57.142857142857146,32C78.86904761904762,22.625,90.47619047619048,-34.583333333333336,114.28571428571429,-35C138.0952380952381,-35.416666666666664,147.61904761904765,25.833333333333332,171.42857142857144,30C195.23809523809524,34.166666666666664,204.76190476190476,-12.916666666666666,228.57142857142858,-15C252.3809523809524,-17.083333333333332,261.9047619047619,20,285.7142857142857,20C309.5238095238095,20,319.0476190476191,-19.583333333333332,342.8571428571429,-15C366.6666666666667,-10.416666666666668,376.1904761904762,38.458333333333336,400,42C423.8095238095238,45.541666666666664,433.33333333333337,-1.125,457.14285714285717,2C480.95238095238096,5.125,490.47619047619054,60.541666666666664,514.2857142857143,57C538.0952380952382,53.458333333333336,547.6190476190477,-14.791666666666666,571.4285714285714,-15C595.2380952380952,-15.208333333333334,604.7619047619047,51.833333333333336,628.5714285714286,56C652.3809523809524,60.166666666666664,661.9047619047619,6.666666666666666,685.7142857142858,5C709.5238095238096,3.3333333333333335,719.047619047619,49.041666666666664,742.8571428571429,48C766.6666666666667,46.958333333333336,788.0952380952381,10,800,0" transform="matrix(1,0,0,1,0,737)"></path><path d="M10,10C19.821428571428573,14.583333333333332,35.41666666666667,41.375,57.142857142857146,32C78.86904761904762,22.625,90.47619047619048,-34.583333333333336,114.28571428571429,-35C138.0952380952381,-35.416666666666664,147.61904761904765,25.833333333333332,171.42857142857144,30C195.23809523809524,34.166666666666664,204.76190476190476,-12.916666666666666,228.57142857142858,-15C252.3809523809524,-17.083333333333332,261.9047619047619,20,285.7142857142857,20C309.5238095238095,20,319.0476190476191,-19.583333333333332,342.8571428571429,-15C366.6666666666667,-10.416666666666668,376.1904761904762,38.458333333333336,400,42C423.8095238095238,45.541666666666664,433.33333333333337,-1.125,457.14285714285717,2C480.95238095238096,5.125,490.47619047619054,60.541666666666664,514.2857142857143,57C538.0952380952382,53.458333333333336,547.6190476190477,-14.791666666666666,571.4285714285714,-15C595.2380952380952,-15.208333333333334,604.7619047619047,51.833333333333336,628.5714285714286,56C652.3809523809524,60.166666666666664,661.9047619047619,6.666666666666666,685.7142857142858,5C709.5238095238096,3.3333333333333335,719.047619047619,49.041666666666664,742.8571428571429,48C766.6666666666667,46.958333333333336,788.0952380952381,10,800,0" transform="matrix(1,0,0,1,0,670)"></path><path d="M10,10C19.821428571428573,14.583333333333332,35.41666666666667,41.375,57.142857142857146,32C78.86904761904762,22.625,90.47619047619048,-34.583333333333336,114.28571428571429,-35C138.0952380952381,-35.416666666666664,147.61904761904765,25.833333333333332,171.42857142857144,30C195.23809523809524,34.166666666666664,204.76190476190476,-12.916666666666666,228.57142857142858,-15C252.3809523809524,-17.083333333333332,261.9047619047619,20,285.7142857142857,20C309.5238095238095,20,319.0476190476191,-19.583333333333332,342.8571428571429,-15C366.6666666666667,-10.416666666666668,376.1904761904762,38.458333333333336,400,42C423.8095238095238,45.541666666666664,433.33333333333337,-1.125,457.14285714285717,2C480.95238095238096,5.125,490.47619047619054,60.541666666666664,514.2857142857143,57C538.0952380952382,53.458333333333336,547.6190476190477,-14.791666666666666,571.4285714285714,-15C595.2380952380952,-15.208333333333334,604.7619047619047,51.833333333333336,628.5714285714286,56C652.3809523809524,60.166666666666664,661.9047619047619,6.666666666666666,685.7142857142858,5C709.5238095238096,3.3333333333333335,719.047619047619,49.041666666666664,742.8571428571429,48C766.6666666666667,46.958333333333336,788.0952380952381,10,800,0" transform="matrix(1,0,0,1,0,603)"></path><path d="M10,10C19.821428571428573,14.583333333333332,35.41666666666667,41.375,57.142857142857146,32C78.86904761904762,22.625,90.47619047619048,-34.583333333333336,114.28571428571429,-35C138.0952380952381,-35.416666666666664,147.61904761904765,25.833333333333332,171.42857142857144,30C195.23809523809524,34.166666666666664,204.76190476190476,-12.916666666666666,228.57142857142858,-15C252.3809523809524,-17.083333333333332,261.9047619047619,20,285.7142857142857,20C309.5238095238095,20,319.0476190476191,-19.583333333333332,342.8571428571429,-15C366.6666666666667,-10.416666666666668,376.1904761904762,38.458333333333336,400,42C423.8095238095238,45.541666666666664,433.33333333333337,-1.125,457.14285714285717,2C480.95238095238096,5.125,490.47619047619054,60.541666666666664,514.2857142857143,57C538.0952380952382,53.458333333333336,547.6190476190477,-14.791666666666666,571.4285714285714,-15C595.2380952380952,-15.208333333333334,604.7619047619047,51.833333333333336,628.5714285714286,56C652.3809523809524,60.166666666666664,661.9047619047619,6.666666666666666,685.7142857142858,5C709.5238095238096,3.3333333333333335,719.047619047619,49.041666666666664,742.8571428571429,48C766.6666666666667,46.958333333333336,788.0952380952381,10,800,0" transform="matrix(1,0,0,1,0,536)"></path><path d="M10,10C19.821428571428573,14.583333333333332,35.41666666666667,41.375,57.142857142857146,32C78.86904761904762,22.625,90.47619047619048,-34.583333333333336,114.28571428571429,-35C138.0952380952381,-35.416666666666664,147.61904761904765,25.833333333333332,171.42857142857144,30C195.23809523809524,34.166666666666664,204.76190476190476,-12.916666666666666,228.57142857142858,-15C252.3809523809524,-17.083333333333332,261.9047619047619,20,285.7142857142857,20C309.5238095238095,20,319.0476190476191,-19.583333333333332,342.8571428571429,-15C366.6666666666667,-10.416666666666668,376.1904761904762,38.458333333333336,400,42C423.8095238095238,45.541666666666664,433.33333333333337,-1.125,457.14285714285717,2C480.95238095238096,5.125,490.47619047619054,60.541666666666664,514.2857142857143,57C538.0952380952382,53.458333333333336,547.6190476190477,-14.791666666666666,571.4285714285714,-15C595.2380952380952,-15.208333333333334,604.7619047619047,51.833333333333336,628.5714285714286,56C652.3809523809524,60.166666666666664,661.9047619047619,6.666666666666666,685.7142857142858,5C709.5238095238096,3.3333333333333335,719.047619047619,49.041666666666664,742.8571428571429,48C766.6666666666667,46.958333333333336,788.0952380952381,10,800,0" transform="matrix(1,0,0,1,0,469)"></path><path d="M10,10C19.821428571428573,14.583333333333332,35.41666666666667,41.375,57.142857142857146,32C78.86904761904762,22.625,90.47619047619048,-34.583333333333336,114.28571428571429,-35C138.0952380952381,-35.416666666666664,147.61904761904765,25.833333333333332,171.42857142857144,30C195.23809523809524,34.166666666666664,204.76190476190476,-12.916666666666666,228.57142857142858,-15C252.3809523809524,-17.083333333333332,261.9047619047619,20,285.7142857142857,20C309.5238095238095,20,319.0476190476191,-19.583333333333332,342.8571428571429,-15C366.6666666666667,-10.416666666666668,376.1904761904762,38.458333333333336,400,42C423.8095238095238,45.541666666666664,433.33333333333337,-1.125,457.14285714285717,2C480.95238095238096,5.125,490.47619047619054,60.541666666666664,514.2857142857143,57C538.0952380952382,53.458333333333336,547.6190476190477,-14.791666666666666,571.4285714285714,-15C595.2380952380952,-15.208333333333334,604.7619047619047,51.833333333333336,628.5714285714286,56C652.3809523809524,60.166666666666664,661.9047619047619,6.666666666666666,685.7142857142858,5C709.5238095238096,3.3333333333333335,719.047619047619,49.041666666666664,742.8571428571429,48C766.6666666666667,46.958333333333336,788.0952380952381,10,800,0" transform="matrix(1,0,0,1,0,402)"></path><path d="M10,10C19.821428571428573,14.583333333333332,35.41666666666667,41.375,57.142857142857146,32C78.86904761904762,22.625,90.47619047619048,-34.583333333333336,114.28571428571429,-35C138.0952380952381,-35.416666666666664,147.61904761904765,25.833333333333332,171.42857142857144,30C195.23809523809524,34.166666666666664,204.76190476190476,-12.916666666666666,228.57142857142858,-15C252.3809523809524,-17.083333333333332,261.9047619047619,20,285.7142857142857,20C309.5238095238095,20,319.0476190476191,-19.583333333333332,342.8571428571429,-15C366.6666666666667,-10.416666666666668,376.1904761904762,38.458333333333336,400,42C423.8095238095238,45.541666666666664,433.33333333333337,-1.125,457.14285714285717,2C480.95238095238096,5.125,490.47619047619054,60.541666666666664,514.2857142857143,57C538.0952380952382,53.458333333333336,547.6190476190477,-14.791666666666666,571.4285714285714,-15C595.2380952380952,-15.208333333333334,604.7619047619047,51.833333333333336,628.5714285714286,56C652.3809523809524,60.166666666666664,661.9047619047619,6.666666666666666,685.7142857142858,5C709.5238095238096,3.3333333333333335,719.047619047619,49.041666666666664,742.8571428571429,48C766.6666666666667,46.958333333333336,788.0952380952381,10,800,0" transform="matrix(1,0,0,1,0,335)"></path><path d="M10,10C19.821428571428573,14.583333333333332,35.41666666666667,41.375,57.142857142857146,32C78.86904761904762,22.625,90.47619047619048,-34.583333333333336,114.28571428571429,-35C138.0952380952381,-35.416666666666664,147.61904761904765,25.833333333333332,171.42857142857144,30C195.23809523809524,34.166666666666664,204.76190476190476,-12.916666666666666,228.57142857142858,-15C252.3809523809524,-17.083333333333332,261.9047619047619,20,285.7142857142857,20C309.5238095238095,20,319.0476190476191,-19.583333333333332,342.8571428571429,-15C366.6666666666667,-10.416666666666668,376.1904761904762,38.458333333333336,400,42C423.8095238095238,45.541666666666664,433.33333333333337,-1.125,457.14285714285717,2C480.95238095238096,5.125,490.47619047619054,60.541666666666664,514.2857142857143,57C538.0952380952382,53.458333333333336,547.6190476190477,-14.791666666666666,571.4285714285714,-15C595.2380952380952,-15.208333333333334,604.7619047619047,51.833333333333336,628.5714285714286,56C652.3809523809524,60.166666666666664,661.9047619047619,6.666666666666666,685.7142857142858,5C709.5238095238096,3.3333333333333335,719.047619047619,49.041666666666664,742.8571428571429,48C766.6666666666667,46.958333333333336,788.0952380952381,10,800,0" transform="matrix(1,0,0,1,0,268)"></path><path d="M10,10C19.821428571428573,14.583333333333332,35.41666666666667,41.375,57.142857142857146,32C78.86904761904762,22.625,90.47619047619048,-34.583333333333336,114.28571428571429,-35C138.0952380952381,-35.416666666666664,147.61904761904765,25.833333333333332,171.42857142857144,30C195.23809523809524,34.166666666666664,204.76190476190476,-12.916666666666666,228.57142857142858,-15C252.3809523809524,-17.083333333333332,261.9047619047619,20,285.7142857142857,20C309.5238095238095,20,319.0476190476191,-19.583333333333332,342.8571428571429,-15C366.6666666666667,-10.416666666666668,376.1904761904762,38.458333333333336,400,42C423.8095238095238,45.541666666666664,433.33333333333337,-1.125,457.14285714285717,2C480.95238095238096,5.125,490.47619047619054,60.541666666666664,514.2857142857143,57C538.0952380952382,53.458333333333336,547.6190476190477,-14.791666666666666,571.4285714285714,-15C595.2380952380952,-15.208333333333334,604.7619047619047,51.833333333333336,628.5714285714286,56C652.3809523809524,60.166666666666664,661.9047619047619,6.666666666666666,685.7142857142858,5C709.5238095238096,3.3333333333333335,719.047619047619,49.041666666666664,742.8571428571429,48C766.6666666666667,46.958333333333336,788.0952380952381,10,800,0" transform="matrix(1,0,0,1,0,201)"></path><path d="M10,10C19.821428571428573,14.583333333333332,35.41666666666667,41.375,57.142857142857146,32C78.86904761904762,22.625,90.47619047619048,-34.583333333333336,114.28571428571429,-35C138.0952380952381,-35.416666666666664,147.61904761904765,25.833333333333332,171.42857142857144,30C195.23809523809524,34.166666666666664,204.76190476190476,-12.916666666666666,228.57142857142858,-15C252.3809523809524,-17.083333333333332,261.9047619047619,20,285.7142857142857,20C309.5238095238095,20,319.0476190476191,-19.583333333333332,342.8571428571429,-15C366.6666666666667,-10.416666666666668,376.1904761904762,38.458333333333336,400,42C423.8095238095238,45.541666666666664,433.33333333333337,-1.125,457.14285714285717,2C480.95238095238096,5.125,490.47619047619054,60.541666666666664,514.2857142857143,57C538.0952380952382,53.458333333333336,547.6190476190477,-14.791666666666666,571.4285714285714,-15C595.2380952380952,-15.208333333333334,604.7619047619047,51.833333333333336,628.5714285714286,56C652.3809523809524,60.166666666666664,661.9047619047619,6.666666666666666,685.7142857142858,5C709.5238095238096,3.3333333333333335,719.047619047619,49.041666666666664,742.8571428571429,48C766.6666666666667,46.958333333333336,788.0952380952381,10,800,0" transform="matrix(1,0,0,1,0,134)"></path><path d="M10,10C19.821428571428573,14.583333333333332,35.41666666666667,41.375,57.142857142857146,32C78.86904761904762,22.625,90.47619047619048,-34.583333333333336,114.28571428571429,-35C138.0952380952381,-35.416666666666664,147.61904761904765,25.833333333333332,171.42857142857144,30C195.23809523809524,34.166666666666664,204.76190476190476,-12.916666666666666,228.57142857142858,-15C252.3809523809524,-17.083333333333332,261.9047619047619,20,285.7142857142857,20C309.5238095238095,20,319.0476190476191,-19.583333333333332,342.8571428571429,-15C366.6666666666667,-10.416666666666668,376.1904761904762,38.458333333333336,400,42C423.8095238095238,45.541666666666664,433.33333333333337,-1.125,457.14285714285717,2C480.95238095238096,5.125,490.47619047619054,60.541666666666664,514.2857142857143,57C538.0952380952382,53.458333333333336,547.6190476190477,-14.791666666666666,571.4285714285714,-15C595.2380952380952,-15.208333333333334,604.7619047619047,51.833333333333336,628.5714285714286,56C652.3809523809524,60.166666666666664,661.9047619047619,6.666666666666666,685.7142857142858,5C709.5238095238096,3.3333333333333335,719.047619047619,49.041666666666664,742.8571428571429,48C766.6666666666667,46.958333333333336,788.0952380952381,10,800,0" transform="matrix(1,0,0,1,0,67)"></path></g></svg>