<svg xmlns="http://www.w3.org/2000/svg" version="1.1"
  xmlns:xlink="http://www.w3.org/1999/xlink"
  xmlns:svgjs="http://svgjs.dev/svgjs" viewBox="0 0 1422 800" opacity="0.23">
  <defs>
    <linearGradient x1="50%" y1="0%" x2="50%" y2="100%" id="oooscillate-grad">
      <stop stop-color="hsl(208, 75%, 65%)" stop-opacity="1" offset="0%"></stop>
      <stop stop-color="#4B57F0" stop-opacity="1" offset="100%"></stop>
    </linearGradient>
  </defs>
  <g stroke-width="2" stroke="url(#oooscillate-grad)" fill="none" stroke-linecap="round">
    <path d="M 0 1539 Q 355.5 -100 711 400 Q 1066.5 900 1422 1539" opacity="0.05"></path>
    <path d="M 0 1512 Q 355.5 -100 711 400 Q 1066.5 900 1422 1512" opacity="0.07"></path>
    <path d="M 0 1485 Q 355.5 -100 711 400 Q 1066.5 900 1422 1485" opacity="0.08"></path>
    <path d="M 0 1458 Q 355.5 -100 711 400 Q 1066.5 900 1422 1458" opacity="0.10"></path>
    <path d="M 0 1431 Q 355.5 -100 711 400 Q 1066.5 900 1422 1431" opacity="0.12"></path>
    <path d="M 0 1404 Q 355.5 -100 711 400 Q 1066.5 900 1422 1404" opacity="0.13"></path>
    <path d="M 0 1377 Q 355.5 -100 711 400 Q 1066.5 900 1422 1377" opacity="0.15"></path>
    <path d="M 0 1350 Q 355.5 -100 711 400 Q 1066.5 900 1422 1350" opacity="0.17"></path>
    <path d="M 0 1323 Q 355.5 -100 711 400 Q 1066.5 900 1422 1323" opacity="0.19"></path>
    <path d="M 0 1296 Q 355.5 -100 711 400 Q 1066.5 900 1422 1296" opacity="0.20"></path>
    <path d="M 0 1269 Q 355.5 -100 711 400 Q 1066.5 900 1422 1269" opacity="0.22"></path>
    <path d="M 0 1242 Q 355.5 -100 711 400 Q 1066.5 900 1422 1242" opacity="0.24"></path>
    <path d="M 0 1215 Q 355.5 -100 711 400 Q 1066.5 900 1422 1215" opacity="0.25"></path>
    <path d="M 0 1188 Q 355.5 -100 711 400 Q 1066.5 900 1422 1188" opacity="0.27"></path>
    <path d="M 0 1161 Q 355.5 -100 711 400 Q 1066.5 900 1422 1161" opacity="0.29"></path>
    <path d="M 0 1134 Q 355.5 -100 711 400 Q 1066.5 900 1422 1134" opacity="0.30"></path>
    <path d="M 0 1107 Q 355.5 -100 711 400 Q 1066.5 900 1422 1107" opacity="0.32"></path>
    <path d="M 0 1080 Q 355.5 -100 711 400 Q 1066.5 900 1422 1080" opacity="0.34"></path>
    <path d="M 0 1053 Q 355.5 -100 711 400 Q 1066.5 900 1422 1053" opacity="0.36"></path>
    <path d="M 0 1026 Q 355.5 -100 711 400 Q 1066.5 900 1422 1026" opacity="0.37"></path>
    <path d="M 0 999 Q 355.5 -100 711 400 Q 1066.5 900 1422 999" opacity="0.39"></path>
    <path d="M 0 972 Q 355.5 -100 711 400 Q 1066.5 900 1422 972" opacity="0.41"></path>
    <path d="M 0 945 Q 355.5 -100 711 400 Q 1066.5 900 1422 945" opacity="0.42"></path>
    <path d="M 0 918 Q 355.5 -100 711 400 Q 1066.5 900 1422 918" opacity="0.44"></path>
    <path d="M 0 891 Q 355.5 -100 711 400 Q 1066.5 900 1422 891" opacity="0.46"></path>
    <path d="M 0 864 Q 355.5 -100 711 400 Q 1066.5 900 1422 864" opacity="0.47"></path>
    <path d="M 0 837 Q 355.5 -100 711 400 Q 1066.5 900 1422 837" opacity="0.49"></path>
    <path d="M 0 810 Q 355.5 -100 711 400 Q 1066.5 900 1422 810" opacity="0.51"></path>
    <path d="M 0 783 Q 355.5 -100 711 400 Q 1066.5 900 1422 783" opacity="0.53"></path>
    <path d="M 0 756 Q 355.5 -100 711 400 Q 1066.5 900 1422 756" opacity="0.54"></path>
    <path d="M 0 729 Q 355.5 -100 711 400 Q 1066.5 900 1422 729" opacity="0.56"></path>
    <path d="M 0 702 Q 355.5 -100 711 400 Q 1066.5 900 1422 702" opacity="0.58"></path>
    <path d="M 0 675 Q 355.5 -100 711 400 Q 1066.5 900 1422 675" opacity="0.59"></path>
    <path d="M 0 648 Q 355.5 -100 711 400 Q 1066.5 900 1422 648" opacity="0.61"></path>
    <path d="M 0 621 Q 355.5 -100 711 400 Q 1066.5 900 1422 621" opacity="0.63"></path>
    <path d="M 0 594 Q 355.5 -100 711 400 Q 1066.5 900 1422 594" opacity="0.64"></path>
    <path d="M 0 567 Q 355.5 -100 711 400 Q 1066.5 900 1422 567" opacity="0.66"></path>
    <path d="M 0 540 Q 355.5 -100 711 400 Q 1066.5 900 1422 540" opacity="0.68"></path>
    <path d="M 0 513 Q 355.5 -100 711 400 Q 1066.5 900 1422 513" opacity="0.69"></path>
    <path d="M 0 486 Q 355.5 -100 711 400 Q 1066.5 900 1422 486" opacity="0.71"></path>
    <path d="M 0 459 Q 355.5 -100 711 400 Q 1066.5 900 1422 459" opacity="0.73"></path>
    <path d="M 0 432 Q 355.5 -100 711 400 Q 1066.5 900 1422 432" opacity="0.75"></path>
    <path d="M 0 405 Q 355.5 -100 711 400 Q 1066.5 900 1422 405" opacity="0.76"></path>
    <path d="M 0 378 Q 355.5 -100 711 400 Q 1066.5 900 1422 378" opacity="0.78"></path>
    <path d="M 0 351 Q 355.5 -100 711 400 Q 1066.5 900 1422 351" opacity="0.80"></path>
    <path d="M 0 324 Q 355.5 -100 711 400 Q 1066.5 900 1422 324" opacity="0.81"></path>
    <path d="M 0 297 Q 355.5 -100 711 400 Q 1066.5 900 1422 297" opacity="0.83"></path>
    <path d="M 0 270 Q 355.5 -100 711 400 Q 1066.5 900 1422 270" opacity="0.85"></path>
    <path d="M 0 243 Q 355.5 -100 711 400 Q 1066.5 900 1422 243" opacity="0.86"></path>
    <path d="M 0 216 Q 355.5 -100 711 400 Q 1066.5 900 1422 216" opacity="0.88"></path>
    <path d="M 0 189 Q 355.5 -100 711 400 Q 1066.5 900 1422 189" opacity="0.90"></path>
    <path d="M 0 162 Q 355.5 -100 711 400 Q 1066.5 900 1422 162" opacity="0.92"></path>
    <path d="M 0 135 Q 355.5 -100 711 400 Q 1066.5 900 1422 135" opacity="0.93"></path>
    <path d="M 0 108 Q 355.5 -100 711 400 Q 1066.5 900 1422 108" opacity="0.95"></path>
    <path d="M 0 81 Q 355.5 -100 711 400 Q 1066.5 900 1422 81" opacity="0.97"></path>
    <path d="M 0 54 Q 355.5 -100 711 400 Q 1066.5 900 1422 54" opacity="0.98"></path>
  </g>
</svg>